<svg id="mail" width="20" height="28" viewBox="0 0 18 16" fill="none" xmlns="http://www.w3.org/2000/svg">
<path d="M1.57904 0.5H17.0534C17.2814 0.5 17.5 0.587797 17.6612 0.744078C17.8225 0.900358 17.913 1.11232 17.913 1.33333V14.6667C17.913 14.8877 17.8225 15.0996 17.6612 15.2559C17.5 15.4122 17.2814 15.5 17.0534 15.5H1.57904C1.35104 15.5 1.13238 15.4122 0.971156 15.2559C0.809934 15.0996 0.71936 14.8877 0.71936 14.6667V1.33333C0.71936 1.11232 0.809934 0.900358 0.971156 0.744078C1.13238 0.587797 1.35104 0.5 1.57904 0.5ZM9.36778 7.73583L3.85549 3.19833L2.7422 4.46833L9.37896 9.93083L15.8962 4.46417L14.7718 3.20333L9.36864 7.73583H9.36778Z" fill="#ffcb03"/>
</svg>
